<svg version="1.2" xmlns="http://www.w3.org/2000/svg" viewBox="0 0 568 223" width="568" height="223"><style>.a{fill:#231f20}.b{fill:#ed1c24}</style><path fill-rule="evenodd" class="a" d="m0 107h34.7c13.6 0 22 3.1 28 10.2 7 8.4 10.7 20.3 10.7 34.1 0 13.8-3.7 25.8-10.7 34-6 7.2-14.6 10.4-28 10.4h-34.7zm34.7 73.4c13.7 0 20.5-9.6 20.5-29.1 0-19.5-6.8-29.1-20.5-29.1h-16.5v58.2z"/><path fill-rule="evenodd" class="a" d="m137.5 195.7h-18.5c-1.6-2-1.9-3.2-1.9-6.6-6.1 6.3-12.7 9.4-20 9.4-12 0-19.9-8-19.9-19.7 0-11.8 6.3-18.5 19.3-20.7l6.8-1.2c8.4-1.4 8.4-1.4 10.7-2.6 1.9-1.1 3-2.9 3-5.1q0-6.6-9.9-6.6c-8.4 0-11.2 2.2-12 9h-16.4c1-15.2 10.3-22.7 28-22.7 17.8 0 26.9 6.8 26.9 20.2v36.5c0 3.2 1 5.2 3.9 8zm-20.5-31c-2 1-2.7 1.2-7.2 2l-5.9 1.1c-7 1.5-9.7 3.9-9.7 9 0 4.9 3.5 7.9 9.3 7.9 8.6 0 13.5-5.6 13.5-15.4z"/><path fill-rule="evenodd" class="a" d="m201.1 130v67.8c0 15.2-11.4 24.4-30.4 24.4-9.3 0-16.4-2.1-21.7-6.4-4.5-3.6-6.3-7.1-6.4-12.2h17.5c1.3 4.9 5.1 7.6 11.2 7.6 8 0 13.6-5.5 13.6-13.4v-8.8c-5.9 7.1-10.2 9.5-17.3 9.5-15.6 0-26.3-13.9-26.3-34.1 0-11.5 3.4-21 9.9-27.8 4.5-4.8 11-7.7 16.8-7.7 6.9 0 12.2 3.5 16.9 11.2v-10.1zm-42.8 34.2c0 11.9 5.2 20 12.7 20 8.5 0 14.2-8.1 14.2-20 0-12.2-6-21.1-14-21.1-7.7 0-12.9 8.7-12.9 21.1z"/><path fill-rule="evenodd" class="a" d="m225.6 168.2c0.3 6.2 0.9 9.1 2.5 11.5 2.4 3.7 6.3 5.7 11.2 5.7 6.2 0 10.9-3 13-8.2h16.7c-3.7 13-15.6 21.3-30.4 21.3-18.6 0-30-12.9-30-34 0-22 11.6-35.6 30.4-35.6 13.3 0 23.8 7.2 28.2 19.1 1.6 4.6 2.6 10.7 2.6 17.3 0 0.8 0 1.4-0.2 2.9zm26.4-11.3c-0.8-9.8-5.4-15-13.2-15-7.6 0-11.8 4.9-12.9 15z"/><path class="a" d="m293.3 130v9.5c4.9-7.4 10.9-10.6 19.7-10.6 14.2 0 22.1 8.1 22.1 22.7v44.1h-17.1v-40.5c0-7.8-3.6-11.8-10.9-11.8-8.4 0-13.8 5.1-13.8 12.9v39.4h-17v-65.7z"/><path class="a" d="m360.8 107v32.5c4.8-7.3 10.8-10.6 19.2-10.6 5.5 0 11 1.8 14.7 5 4.5 3.8 6.7 9.6 6.7 17.7v44.1h-17v-40.2c0-4.1-0.4-5.9-1.9-8.1-2-2.7-4.8-4-8.5-4-7.7 0-13.2 5.3-13.2 12.9v39.4h-17v-88.7z"/><path fill-rule="evenodd" class="a" d="m468.8 195.7h-18.5c-1.6-2-1.9-3.2-1.9-6.6-6.1 6.3-12.7 9.4-20 9.4-12 0-19.9-8-19.9-19.7 0-11.8 6.3-18.5 19.3-20.7l6.8-1.2c8.4-1.4 8.4-1.4 10.7-2.6 1.8-1.1 2.9-2.9 2.9-5.1q0-6.6-9.8-6.6c-8.4 0-11.2 2.2-12.1 9h-16.4c1.1-15.2 10.4-22.7 28.1-22.7 17.8 0 26.9 6.8 26.9 20.2v36.5c0 3.2 1 5.2 3.9 8zm-20.6-31c-1.9 1-2.6 1.2-7.1 2l-5.9 1.1c-7 1.5-9.7 3.9-9.7 9 0 4.9 3.5 7.9 9.2 7.9 8.7 0 13.5-5.6 13.5-15.4z"/><path class="a" d="m492 130v8.1c5.6-6.8 10.4-9.2 18-9.2 8.1 0 14.7 3.5 17.9 9.7 5.1-6.8 10.8-9.7 19.2-9.7 13.1 0 20.9 7.5 20.9 20.3v46.5h-17v-43.8c0-5.2-3.6-8.5-9.3-8.5-7.3 0-11.7 4.8-11.7 12.9v39.4h-17v-43.8c0-5.2-3.5-8.5-9.2-8.5-7.3 0-11.7 4.7-11.7 12.9v39.4h-17v-65.7z"/><path fill-rule="evenodd" class="b" d="m525.4 43.3v1.9c-0.3 9.3-3.4 19.1-8.3 24.7l14.9 18.7h-19.5l-5.6-6.8c-10 7.4-15.3 9.6-23.7 9.6-17.3 0-28.9-10.4-28.9-26.2 0-11.5 4.9-17.9 19.1-25.3q-1.1-1.5-1.4-1.8c-1.2-1.5-2.3-2.8-3.4-4.2-3.4-4-5.1-8.4-5.1-12.9 0-11.5 9.9-20.3 22.9-20.3 13.1 0 21.7 7.6 21.7 18.8 0 9-3.4 14.1-14.2 21.5l14.1 17.5c2.6-5.1 3.6-8.6 3.6-14v-1.2zm-49.6 10.1c-3.3 2.2-5.2 5.7-5.2 9.7 0 7.3 6.3 14.2 12.9 14.2 3.7 0 8.8-2.3 14.6-6.7l-16.6-20.7zm17.8-32.4c0-4.5-2.6-7-7-7-4.2 0-7 2.3-7 5.8 0 3 0.6 4.1 6.7 11.7 5-2.8 7.3-6.1 7.3-10.5z"/><path fill-rule="evenodd" class="a" d="m0.6 0h39.5c9.5 0 15.7 1.9 20.9 6.4 5 4.4 8.1 10.7 8.1 16.9 0 7.6-3.4 12.7-12.2 18.3 10.1 5.8 14.7 12.8 14.7 21.5 0 7.2-3.4 14.6-8.7 19.1-5.4 4.5-12.2 6.4-22.4 6.4h-39.9zm18.2 35.3h19.9c8.5 0 12.9-3.4 12.9-10.1 0-6.6-4.4-10-12.9-10h-19.9zm0 38.2h21.8c8.9 0 13.5-3.9 13.5-11.4 0-7.7-4.6-11.6-13.5-11.6h-21.8z"/><path fill-rule="evenodd" class="a" d="m142.1 88.6h-18.5c-1.5-1.9-1.9-3.1-1.9-6.5-6.1 6.3-12.6 9.3-19.9 9.3-12.1 0-20-7.9-20-19.7 0-11.8 6.3-18.4 19.3-20.6l6.9-1.2c8.3-1.4 8.3-1.4 10.7-2.6 1.8-1.1 2.9-2.9 2.9-5.1q0-6.6-9.9-6.6c-8.4 0-11.2 2.2-12 9h-16.4c1.1-15.2 10.3-22.7 28.1-22.7 17.7 0 26.8 6.8 26.8 20.2v36.4c0 3.3 1 5.3 3.9 8.1zm-20.5-31c-2 0.9-2.7 1.2-7.2 2l-5.8 1.1c-7.1 1.5-9.8 3.9-9.8 9 0 4.9 3.6 7.9 9.3 7.9 8.6 0 13.5-5.6 13.5-15.4z"/><path class="a" d="m170.7 23v12.9c3.8-8.9 10.4-14 18.2-14 0.8 0 1.1 0 2.1 0.1v17.3c-2.3-0.4-3.5-0.5-5.4-0.5q-14.9 0-14.9 14.9v34.9h-17v-65.6z"/><path class="a" d="m238.9 23h19.3l-22.4 24.8 24 40.8h-19.9l-15.7-28.9-6.8 7.4v21.5h-17.1v-88.6h17.1v48.5z"/><path class="a" d="m285.8 88.6h-17v-65.6h17zm0-73.5h-17v-15.2h17z"/><path class="a" d="m319.1 23v9.5c4.9-7.5 10.8-10.6 19.7-10.6 14.1 0 22 8.1 22 22.7v44h-17v-40.4c0-7.8-3.6-11.8-10.9-11.8-8.4 0-13.8 5.1-13.8 12.8v39.4h-17v-65.6z"/><path fill-rule="evenodd" class="a" d="m430.6 23v67.8c0 15.2-11.4 24.3-30.4 24.3-9.2 0-16.4-2-21.6-6.3-4.5-3.6-6.3-7.1-6.5-12.3h17.5c1.4 5 5.1 7.7 11.2 7.7 8.1 0 13.6-5.5 13.6-13.4v-8.8c-5.9 7.1-10.2 9.4-17.2 9.4-15.7 0-26.4-13.8-26.4-34 0-11.6 3.4-21 10-27.9 4.5-4.7 10.9-7.6 16.7-7.6 7 0 12.2 3.5 16.9 11.2v-10.1zm-42.8 34.1c0 12 5.3 20.1 12.7 20.1 8.5 0 14.2-8.1 14.2-20.1 0-12.1-5.9-21-14-21-7.6 0-12.9 8.6-12.9 21z"/></svg>